<?xml version="1.0" encoding="UTF-8"?>
<svg width="600" height="400" viewBox="0 0 600 400" fill="none" xmlns="http://www.w3.org/2000/svg">
  <!-- Shield Background -->
  <path d="M300 20C240.772 20 190 70.7715 190 130V180C190 240 300 380 300 380C300 380 410 240 410 180V130C410 70.7715 359.228 20 300 20Z" fill="#F5F5FF" stroke="#7B68EE" stroke-width="4"/>
  
  <!-- Shield Details -->
  <path d="M300 60C257.909 60 225 92.9089 225 135V180C225 222.091 300 320 300 320C300 320 375 222.091 375 180V135C375 92.9089 342.091 60 300 60Z" fill="white" stroke="#7B68EE" stroke-width="4"/>
  
  <!-- Lock -->
  <rect x="250" y="180" width="100" height="120" rx="8" fill="#7B68EE" fill-opacity="0.1" stroke="#7B68EE" stroke-width="4"/>
  <rect x="270" y="200" width="60" height="60" rx="4" fill="#7B68EE"/>
  <circle cx="300" cy="180" r="20" fill="#7B68EE"/>
  
  <!-- Checkmark -->
  <path d="M280 260L300 280L340 220" stroke="#7B68EE" stroke-width="12" stroke-linecap="round" stroke-linejoin="round"/>
  
  <!-- Decorative Elements -->
  <circle cx="200" cy="100" r="8" fill="#7B68EE" fill-opacity="0.2"/>
  <circle cx="400" cy="100" r="12" fill="#7B68EE" fill-opacity="0.2"/>
  <circle cx="250" cy="80" r="6" fill="#7B68EE" fill-opacity="0.2"/>
  <circle cx="350" cy="70" r="10" fill="#7B68EE" fill-opacity="0.2"/>
  <circle cx="180" cy="200" r="5" fill="#7B68EE" fill-opacity="0.2"/>
  <circle cx="420" cy="200" r="7" fill="#7B68EE" fill-opacity="0.2"/>
</svg>
